<svg width="200" height="200" viewBox="0 0 150 150" fill="none" xmlns="http://www.w3.org/2000/svg">
  <path d="M115 85C125 85 130 75 130 65C130 55 122 48 112 48C108 48 105 50 102 52C95 45 85 40 70 40C50 40 35 55 30 75C25 95 35 115 55 120C60 122 80 125 105 115C115 110 125 100 125 85H115Z" stroke="#030A00" stroke-width="5" stroke-linecap="round" stroke-linejoin="round"/>
  <path d="M50 120V135M70 122V140M95 118V135M110 112V130" stroke="#030A00" stroke-width="5" stroke-linecap="round"/>
  <circle cx="115" cy="60" r="3" fill="#030A00"/>
  <path d="M105 48C105 44 108 42 110 42" stroke="#030A00" stroke-width="4" stroke-linecap="round"/>
</svg>