<svg width="600" height="150" viewBox="0 0 600 150" fill="none" xmlns="http://www.w3.org/2000/svg">
  <g transform="translate(10, 15) scale(1.2)">
    <path d="M95 65C105 65 110 55 110 45C110 35 102 28 92 28C88 28 85 30 82 32C75 25 65 20 50 20C30 20 15 35 10 55C5 75 15 95 35 100C40 102 60 105 85 95C95 90 105 80 105 65H95Z" stroke="#FFFFFF" stroke-width="4" stroke-linecap="round" stroke-linejoin="round"/>
    <path d="M30 100V115M50 102V120M75 98V115M90 92V110" stroke="#FFFFFF" stroke-width="4" stroke-linecap="round"/>
    <circle cx="95" cy="40" r="2" fill="#FFFFFF"/>
    <path d="M85 28C85 24 88 22 90 22" stroke="#FFFFFF" stroke-width="3" stroke-linecap="round"/>
  </g>
  <text x="160" y="75" fill="#FFFFFF" style="font-family: serif; font-size: 42px; font-weight: 700; letter-spacing: 0.05em; text-transform: uppercase;">HIPPO</text>
  <text x="160" y="105" fill="#FFFFFF" opacity="0.9" style="font-family: sans-serif; font-size: 18px; font-weight: 500; letter-spacing: 0.2em; text-transform: uppercase;">TRANSFERS &amp; ADVENTURES</text>
  <text x="160" y="130" fill="#FFDDBA" style="font-family: sans-serif; font-size: 11px; font-weight: 600; letter-spacing: 0.4em; text-transform: uppercase;">SERVICE BEYOND EXPECTATION</text>
</svg>